<?xml version="1.0" standalone="no"?>
<!DOCTYPE svg PUBLIC "-//W3C//DTD SVG 20010904//EN"
 "http://www.w3.org/TR/2001/REC-SVG-20010904/DTD/svg10.dtd">
<svg version="1.0" xmlns="http://www.w3.org/2000/svg"
 width="1896.000000pt" height="561.000000pt" viewBox="0 0 1896.000000 561.000000"
 preserveAspectRatio="xMidYMid meet">

<g transform="translate(0.000000,561.000000) scale(0.100000,-0.100000)"
fill="#000000" stroke="none">
<path d="M3532 3453 l3 -2158 1140 -3 c1462 -4 1647 5 1989 93 290 74 505 184
670 344 195 189 291 410 303 697 14 326 -80 590 -286 807 -116 121 -239 205
-417 282 l-75 33 48 27 c196 113 362 296 442 489 60 145 76 232 76 421 -1 145
-4 182 -24 255 -97 361 -365 615 -796 753 -127 41 -253 69 -415 94 -103 15
-243 17 -1388 20 l-1272 4 2 -2158z m2298 1253 c160 -36 278 -115 331 -221 21
-45 24 -63 24 -170 0 -111 -2 -124 -28 -176 -49 -102 -145 -170 -295 -212 -73
-20 -104 -21 -594 -25 l-518 -3 0 416 0 417 503 -5 c422 -4 514 -7 577 -21z
m225 -1684 c159 -44 253 -110 308 -216 31 -60 32 -64 32 -191 0 -122 -2 -133
-27 -181 -56 -105 -130 -165 -260 -208 -122 -40 -217 -46 -805 -46 l-553 0 0
436 0 435 613 -3 c595 -4 614 -5 692 -26z"/>
<path d="M7892 3453 l3 -2158 1263 -3 1262 -2 0 490 0 490 -650 0 -650 0 0
1670 0 1670 -615 0 -615 0 2 -2157z"/>
<path d="M12330 5599 c-230 -28 -493 -102 -690 -196 -660 -312 -1118 -958
-1205 -1698 -64 -548 86 -1107 418 -1555 86 -116 263 -299 377 -390 306 -244
678 -398 1085 -451 116 -15 416 -15 525 0 565 77 1039 332 1382 740 288 345
458 755 499 1206 11 121 6 356 -8 413 l-5 22 -1067 -2 -1066 -3 0 -380 0 -380
478 -5 478 -5 -39 -80 c-107 -219 -316 -397 -567 -483 -234 -80 -546 -75 -779
13 -390 147 -649 482 -707 913 -7 52 -9 141 -6 222 19 428 243 782 612 968
165 82 320 116 530 117 219 0 379 -44 553 -151 98 -61 244 -207 296 -296 l39
-68 589 0 590 0 -7 28 c-34 136 -162 409 -265 563 -324 489 -826 816 -1410
919 -141 25 -496 36 -630 19z"/>
<path d="M14982 3453 l3 -2158 610 0 610 0 3 572 2 573 329 0 329 0 393 -575
392 -575 649 0 c457 0 648 3 648 11 0 8 -724 1072 -886 1301 l-33 47 67 37
c133 74 249 161 358 269 203 201 320 417 384 715 27 124 38 416 21 556 -67
534 -355 934 -841 1168 -186 90 -373 145 -650 193 -83 14 -236 17 -1243 20
l-1147 4 2 -2158z m2029 1187 c337 -34 534 -177 605 -441 23 -87 23 -280 0
-368 -57 -211 -207 -350 -446 -412 -80 -21 -110 -23 -522 -26 l-438 -4 0 630
0 631 349 0 c192 0 395 -5 452 -10z"/>
<path d="M0 3855 l0 -465 830 0 c457 0 830 -3 830 -7 0 -5 -148 -264 -328
-578 l-328 -570 473 -3 473 -2 26 -42 c100 -158 139 -389 98 -586 -67 -324
-326 -581 -654 -648 -116 -23 -316 -16 -415 16 -102 33 -192 81 -278 149 -42
34 -78 61 -80 61 -8 0 -642 -662 -642 -670 0 -16 140 -131 244 -201 325 -220
762 -335 1137 -300 328 30 605 126 859 296 425 286 698 719 771 1225 22 156
15 431 -16 575 -65 307 -204 586 -405 817 l-75 87 376 648 c207 356 378 651
381 656 2 4 -734 7 -1636 7 l-1641 0 0 -465z"/>
</g>
</svg>
